<svg width="80" height="80" viewBox="0 0 80 80" fill="none" xmlns="http://www.w3.org/2000/svg">
<path d="M30 50H40M30 50C28.0222 50 26.0888 50.5865 24.4443 51.6853C22.7998 52.7841 21.5181 54.3459 20.7612 56.1732C20.0043 58.0004 19.8063 60.0111 20.1922 61.9509C20.578 63.8907 21.5304 65.6725 22.9289 67.0711C24.3275 68.4696 26.1093 69.422 28.0491 69.8079C29.9889 70.1937 31.9996 69.9957 33.8268 69.2388C35.6541 68.4819 37.2159 67.2002 38.3147 65.5557C39.4135 63.9112 40 61.9778 40 60V50M30 50C27.3478 50 24.8043 48.9464 22.9289 47.0711C21.0536 45.1957 20 42.6522 20 40C20 37.3478 21.0536 34.8043 22.9289 32.9289C24.8043 31.0536 27.3478 30 30 30M40 50V40M30 30H40M30 30C27.3478 30 24.8043 28.9464 22.9289 27.0711C21.0536 25.1957 20 22.6522 20 20C20 17.3478 21.0536 14.8043 22.9289 12.9289C24.8043 11.0536 27.3478 10 30 10H40M40 40V30M40 40C40 41.9778 40.5865 43.9112 41.6853 45.5557C42.7841 47.2002 44.3459 48.4819 46.1732 49.2388C48.0004 49.9957 50.0111 50.1937 51.9509 49.8079C53.8907 49.422 55.6725 48.4696 57.0711 47.0711C58.4696 45.6725 59.422 43.8907 59.8079 41.9509C60.1937 40.0111 59.9957 38.0004 59.2388 36.1732C58.4819 34.3459 57.2002 32.7841 55.5557 31.6853C53.9112 30.5865 51.9778 30 50 30M40 40C40 37.3478 41.0536 34.8043 42.9289 32.9289C44.8043 31.0536 47.3478 30 50 30M40 30V10M40 30H50M40 10H50C52.6522 10 55.1957 11.0536 57.0711 12.9289C58.9464 14.8043 60 17.3478 60 20C60 22.6522 58.9464 25.1957 57.0711 27.0711C55.1957 28.9464 52.6522 30 50 30" stroke="black" stroke-width="3" stroke-linecap="round" stroke-linejoin="round"/>
</svg>
