<svg width="100" height="21" viewBox="0 0 100 21" fill="none" xmlns="http://www.w3.org/2000/svg">
<g clip-path="url(#clip0_20_328)">
<path d="M83.8951 0.00839844V3.22324H76.9855V20.1367H73.5305V3.22344H66.477V0.00839844H83.8951ZM84.6719 18.2193C84.9152 18.2193 85.1281 18.3068 85.3084 18.4822C85.4912 18.6574 85.5822 18.8674 85.5848 19.1119C85.5841 19.2723 85.5395 19.4295 85.4559 19.5664C85.3735 19.7013 85.2583 19.8132 85.1211 19.8916C84.9855 19.9729 84.83 20.0152 84.6719 20.0139C84.4187 20.0139 84.2035 19.9262 84.0234 19.751C83.8432 19.5756 83.7539 19.3633 83.7562 19.1119C83.754 18.8674 83.8431 18.6575 84.0234 18.4822C84.2035 18.3068 84.4187 18.2193 84.6719 18.2193ZM16.1945 20.1367L3.45508 4.30234V20.1285H0V0H4.31855L20.4135 19.9861L20.4137 3.22344L20.4123 0.00839844H37.8303V3.22324H23.8686V8.39512H35.0967V11.6102H23.8686V16.9219H37.8305V20.1367H16.1945ZM48.9033 11.5795L51.1676 14.3945L46.5279 20.1605H41.9937L48.9033 11.5795ZM46.5279 0.0167969L52.3736 7.27656L58.201 0.0390625L62.7225 0.0322266L54.6373 10.0879L62.7355 20.1451H58.201L42.0066 0.0167969H46.5279ZM90.5686 11.5344H92.0994V17.4328C92.0973 17.9748 91.9799 18.4383 91.7508 18.8283C91.5189 19.218 91.198 19.5156 90.7863 19.7256C90.3766 19.933 89.8967 20.0393 89.3512 20.0393C88.8525 20.0393 88.4057 19.9494 88.0076 19.774C87.6096 19.5986 87.2937 19.3357 87.0619 18.9896C86.8275 18.6437 86.7129 18.2123 86.7129 17.6957H88.2465C88.2488 17.9217 88.3002 18.1176 88.3984 18.2816C88.4951 18.4436 88.6366 18.5741 88.8059 18.6574C88.9814 18.7453 89.1826 18.7892 89.4096 18.7891C89.6557 18.7891 89.8662 18.7383 90.0371 18.6344C90.2079 18.5328 90.3391 18.3806 90.4305 18.1777C90.5193 17.977 90.5662 17.7279 90.5686 17.4326V11.5344ZM98.3986 13.841C98.3615 13.4836 98.1975 13.2043 97.9119 13.0061C97.6238 12.8053 97.2518 12.7062 96.7951 12.7062C96.4748 12.7062 96.1984 12.7547 95.9689 12.8492C95.7396 12.9461 95.5617 13.0752 95.4398 13.2391C95.3184 13.4027 95.2574 13.5896 95.2525 13.7996C95.2525 13.9748 95.2947 14.1271 95.3766 14.2539C95.4614 14.3869 95.576 14.4983 95.7113 14.5793C95.8583 14.6717 96.0154 14.7467 96.1797 14.8029C96.3529 14.8628 96.526 14.9136 96.6992 14.9553L97.4975 15.1514C97.8184 15.2252 98.1297 15.3242 98.427 15.4512C98.724 15.5758 98.9934 15.735 99.2297 15.9264C99.4663 16.1178 99.6536 16.3484 99.7916 16.6184C99.9297 16.8883 100 17.2043 100 17.5687C100 18.06 99.8736 18.4914 99.6184 18.865C99.3633 19.2365 98.9957 19.5271 98.5135 19.7371C98.0336 19.9447 97.4529 20.0508 96.7695 20.0508C96.1094 20.0508 95.5336 19.9492 95.0488 19.7463C94.5621 19.5457 94.1828 19.2502 93.9088 18.8627C93.6348 18.4752 93.4875 18.0023 93.4664 17.4465H94.9836C95.0045 17.7371 95.0982 17.9793 95.2574 18.1754C95.4187 18.3691 95.6295 18.5121 95.8871 18.609C96.1469 18.7037 96.4371 18.7521 96.7578 18.7521C97.0926 18.7521 97.3875 18.7014 97.6426 18.6021C97.8955 18.5029 98.0943 18.3646 98.2373 18.1846C98.3824 18.0068 98.4551 17.7971 98.4574 17.5572C98.4551 17.3381 98.3893 17.1559 98.2629 17.0127C98.1341 16.8697 97.9562 16.7498 97.7291 16.6529C97.5 16.5561 97.233 16.4684 96.9287 16.3924L95.9596 16.1479C95.2596 15.9701 94.7049 15.7004 94.2998 15.3381C93.8926 14.976 93.6912 14.4963 93.6912 13.8941C93.6912 13.4006 93.827 12.9668 94.101 12.5953C94.3725 12.2242 94.7447 11.9357 95.2152 11.7305C95.6879 11.5229 96.2219 11.4213 96.8162 11.4213C97.4203 11.4213 97.9492 11.5229 98.4059 11.7305C98.8621 11.9357 99.2205 12.2217 99.4801 12.5861C99.74 12.9508 99.876 13.3682 99.883 13.841H98.3986Z" fill="black"/>
</g>
<defs>
<clipPath id="clip0_20_328">
<rect width="100" height="20.3125" fill="white"/>
</clipPath>
</defs>
</svg>
