<svg width="80" height="80" viewBox="0 0 80 80" fill="none" xmlns="http://www.w3.org/2000/svg">
<path d="M40 20C31.1 20 25.5666 24.4333 23.3333 33.3333C26.6666 28.9 30.5666 27.2333 35 28.3333C37.5333 28.9667 39.3666 30.8 41.3666 32.8333C44.6333 36.1667 48.3333 40 56.6666 40C65.5666 40 71.1 35.5667 73.3333 26.6667C70 31.1 66.1 32.7667 61.6666 31.6667C59.1333 31.0333 57.3333 29.2 55.3 27.1667C52.0333 23.8333 48.3333 20 40 20ZM23.3333 40C14.4333 40 8.89996 44.4333 6.66663 53.3333C9.99996 48.9 13.9 47.2333 18.3333 48.3333C20.8666 48.9667 22.6666 50.8 24.7 52.8333C27.9666 56.1667 31.6666 60 40 60C48.9 60 54.4333 55.5667 56.6666 46.6667C53.3333 51.1 49.4333 52.7667 45 51.6667C42.4666 51.0333 40.6666 49.2 38.6333 47.1667C35.3666 43.8333 31.6666 40 23.3333 40Z" fill="black"/>
</svg>
