<svg width="80" height="80" viewBox="0 0 80 80" fill="none" xmlns="http://www.w3.org/2000/svg">
<path d="M10 10H70V70H10V10ZM45.7 59.5333C47.3667 62.8 50.7333 65.3 56 65.3C61.3333 65.3 65.3333 62.5333 65.3333 57.4333C65.3333 52.7333 62.6333 50.6333 57.8333 48.5667L56.4333 47.9667C54 46.9333 52.9667 46.2333 52.9667 44.5667C52.9667 43.2 54 42.1333 55.6667 42.1333C57.2667 42.1333 58.3333 42.8333 59.3 44.5667L63.6667 41.6667C61.8333 38.4667 59.2333 37.2333 55.6667 37.2333C50.6333 37.2333 47.4 40.4333 47.4 44.6667C47.4 49.2667 50.1 51.4333 54.1667 53.1667L55.5667 53.7667C58.1667 54.9 59.7 55.6 59.7 57.5333C59.7 59.1333 58.2 60.3 55.8667 60.3C53.1 60.3 51.5 58.8667 50.3 56.8667L45.7 59.5333ZM43.3333 37.5H26.6667V42.5H31.6667V66.6667H37.5V42.5H43.3333V37.5Z" fill="black"/>
</svg>
